<svg width="89" height="18" viewBox="0 0 89 18" fill="none" xmlns="http://www.w3.org/2000/svg">
<g clip-path="url(#clip0_551_768)">
<path d="M7.35681 14.2566H14.965L14.5221 17.6128H0L10.2929 3.74344H3.17857L3.60956 0.387268H17.6228L7.35681 14.2566Z" fill="#C9C52E"/>
<path d="M25.0874 0.387268L22.8755 17.6128H18.7272L20.951 0.387268H25.0874Z" fill="#C9C52E"/>
<path d="M26.8113 17.6128L31.9294 0.401611H35.3534L38.4242 10.7054L44.2456 0.387268H47.7743L48.4208 17.6128H44.2725L44.1648 7.33484L38.4242 17.6128H36.8619L33.7102 7.33484L30.9596 17.6128H26.8113Z" fill="#C9C52E"/>
<path d="M59.9529 0.387268C61.6769 0.387268 63.3769 0.542168 64.7237 1.93627C65.3433 2.55587 66.0167 3.65739 66.0167 5.45022C66.0167 7.07667 65.4181 8.36751 64.5352 9.21946C63.7382 9.93265 62.7475 10.4159 61.6769 10.6136L66.313 17.6128H61.4614L57.1245 10.8201L56.2685 17.6128H52.1112L54.323 0.401611L59.9529 0.387268ZM57.4477 8.21261H58.4713C59.1448 8.21261 60.1684 8.13516 60.8957 7.59301C61.2042 7.35245 61.4483 7.04471 61.6076 6.69544C61.7669 6.34616 61.8368 5.96546 61.8115 5.58504C61.836 5.2568 61.769 4.92823 61.6176 4.6329C61.4662 4.33757 61.2356 4.08606 60.9495 3.90408C60.4108 3.56846 59.6296 3.49101 58.6868 3.49101H58.0643L57.4477 8.21261Z" fill="#C9C52E"/>
<path d="M86.4679 2.24606C88.0033 3.66598 89 5.83745 89 8.36749C89 10.8201 88.1021 13.4792 86.2255 15.3409C83.9628 17.5611 81.1374 18 78.7879 18C76.5521 18 74.0739 17.6127 71.9459 15.5474C71.13 14.7529 70.4861 13.8117 70.051 12.7779C69.616 11.7442 69.3984 10.6382 69.4108 9.52351C69.4108 6.50295 70.6768 4.15076 72.3768 2.60175C74.6665 0.516335 77.441 0 79.7576 0C83.2055 0 85.2827 1.16175 86.4679 2.24606ZM75.313 5.32112C74.2622 6.3903 73.6749 7.80231 73.6698 9.27108C73.6516 9.9357 73.7707 10.5972 74.0203 11.2175C74.27 11.8379 74.6452 12.4047 75.1244 12.8854C76.3366 14.073 77.7912 14.3197 79.0572 14.3197C80.2694 14.3197 81.7509 14.139 83.0738 12.8481C84.1796 11.6961 84.778 10.1791 84.744 8.61418C84.744 7.50406 84.5015 6.10996 83.3163 4.99984C82.8203 4.55026 82.2359 4.19977 81.5972 3.96879C80.9585 3.73782 80.2782 3.63098 79.596 3.6545C77.8181 3.66598 76.3905 4.23394 75.313 5.32112Z" fill="#C9C52E"/>
</g>
<defs>
<clipPath id="clip0_551_768">
<rect width="89" height="18" fill="white"/>
</clipPath>
</defs>
</svg>
